<?xml version="1.0" standalone="no"?><!DOCTYPE svg PUBLIC "-//W3C//DTD SVG 1.1//EN" "http://www.w3.org/Graphics/SVG/1.1/DTD/svg11.dtd"><svg t="1611665403605" class="icon" viewBox="0 0 1024 1024" version="1.1" xmlns="http://www.w3.org/2000/svg" p-id="9004" xmlns:xlink="http://www.w3.org/1999/xlink" width="32" height="32"><defs><style type="text/css"></style></defs><path d="M129.536 84.992L512 0l382.464 84.992a46.545455 46.545455 0 0 1 36.445091 45.428364v464.849454a279.272727 279.272727 0 0 1-124.369455 232.354909L512 1024l-294.539636-196.375273A279.272727 279.272727 0 0 1 93.090909 595.316364V130.420364a46.545455 46.545455 0 0 1 36.445091-45.428364zM186.181818 167.749818v427.52a186.181818 186.181818 0 0 0 82.897455 154.903273L512 912.151273l242.920727-161.978182A186.181818 186.181818 0 0 0 837.818182 595.316364V167.749818L512 95.418182 186.181818 167.749818zM558.545455 418.909091h139.636363l-232.727273 325.818182v-232.727273H325.818182l232.727273-325.818182v232.727273z" p-id="9005"></path></svg>