<?xml version="1.0" standalone="no"?><!DOCTYPE svg PUBLIC "-//W3C//DTD SVG 1.1//EN" "http://www.w3.org/Graphics/SVG/1.1/DTD/svg11.dtd"><svg t="1611651013766" class="icon" viewBox="0 0 1024 1024" version="1.1" xmlns="http://www.w3.org/2000/svg" p-id="8438" width="32" height="32" xmlns:xlink="http://www.w3.org/1999/xlink"><defs><style type="text/css"></style></defs><path d="M512.005501 223.691617a287.213743 287.213743 0 1 1-112.214356 22.640896 286.509653 286.509653 0 0 1 112.214356-22.640896m0-22.002815c-171.390926 0-310.316699 138.925773-310.316699 310.316699S340.614575 822.311198 512.005501 822.311198 822.311198 683.385425 822.311198 512.005501 683.385425 201.688802 512.005501 201.688802z" p-id="8439" fill="currentColor"></path><path d="M512.005501 822.311198c-171.390926 0-310.316699-138.925773-310.316699-310.305697S340.614575 201.688802 512.005501 201.688802" p-id="8440" fill="currentColor"></path><path d="M494.304236 0m11.40846 0l12.574608 0q11.408459 0 11.40846 11.408459l0 124.810968q0 11.408459-11.40846 11.408459l-12.574608 0q-11.408459 0-11.40846-11.408459l0-124.810968q0-11.408459 11.40846-11.408459Z" p-id="8441" fill="currentColor"></path><path d="M494.304236 876.372114m11.40846 0l12.574608 0q11.408459 0 11.40846 11.408459l0 124.810968q0 11.408459-11.40846 11.408459l-12.574608 0q-11.408459 0-11.40846-11.408459l0-124.810968q0-11.408459 11.40846-11.408459Z" p-id="8442" fill="currentColor"></path><path d="M861.529529 137.451939m8.066999 8.066999l8.891591 8.891591q8.066999 8.066999 0 16.133998l-88.254682 88.254681q-8.066999 8.066999-16.133998 0l-8.891591-8.891591q-8.066999-8.066999 0-16.133998l88.254681-88.254681q8.066999-8.066999 16.133999 0Z" p-id="8443" fill="currentColor"></path><path d="M241.844586 757.140182m8.066999 8.066999l8.891591 8.891591q8.066999 8.066999 0 16.133998l-88.254681 88.254681q-8.066999 8.066999-16.133998 0l-8.891591-8.891591q-8.066999-8.066999 0-16.133998l88.254681-88.254681q8.066999-8.066999 16.133998 0Z" p-id="8444" fill="currentColor"></path><path d="M1024 494.304236m0 11.40846l0 12.574608q0 11.408459-11.408459 11.40846l-124.810968 0q-11.408459 0-11.408459-11.40846l0-12.574608q0-11.408459 11.408459-11.40846l124.810968 0q11.408459 0 11.408459 11.40846Z" p-id="8445" fill="currentColor"></path><path d="M147.627886 494.304236m0 11.40846l0 12.574608q0 11.408459-11.408459 11.40846l-124.810968 0q-11.408459 0-11.408459-11.40846l0-12.574608q0-11.408459 11.408459-11.40846l124.810968 0q11.408459 0 11.408459 11.40846Z" p-id="8446" fill="currentColor"></path><path d="M886.560296 861.53224m-8.066999 8.066999l-8.891591 8.891591q-8.066999 8.066999-16.133998 0l-88.254681-88.254681q-8.066999-8.066999 0-16.133998l8.891591-8.891591q8.066999-8.066999 16.133998 0l88.254681 88.254681q8.066999 8.066999 0 16.133998Z" p-id="8447" fill="currentColor"></path><path d="M266.859284 241.833051m-8.066999 8.066999l-8.891591 8.891591q-8.066999 8.066999-16.133998 0l-88.254681-88.254681q-8.066999-8.066999 0-16.133999l8.891591-8.891591q8.066999-8.066999 16.133998 0l88.254681 88.254682q8.066999 8.066999 0 16.133998Z" p-id="8448" fill="currentColor"></path></svg>