<?xml version="1.0" standalone="no"?><!DOCTYPE svg PUBLIC "-//W3C//DTD SVG 1.1//EN" "http://www.w3.org/Graphics/SVG/1.1/DTD/svg11.dtd"><svg t="1611653772474" class="icon" viewBox="0 0 1024 1024" version="1.1" xmlns="http://www.w3.org/2000/svg" p-id="3585" xmlns:xlink="http://www.w3.org/1999/xlink" width="32" height="32"><defs><style type="text/css"></style></defs><path d="M157.484621 248.575725c12.498779 12.498779 28.997168 18.798164 45.495557 18.798164s32.896787-6.299385 45.495557-18.798164c25.097549-25.097549 25.097549-65.893565 0-90.991114L240.976467 149.985353c-25.097549-25.097549-65.893565-25.097549-90.991114 0s-25.097549 65.893565 0 90.991114l7.499268 7.599258zM511.950005 139.386388c35.496534 0 64.393712-28.897178 64.393711-64.393712V64.393712C576.243726 28.897178 547.446538 0 511.950005 0c-35.496534 0-64.393712 28.897178-64.393712 64.393712v10.698955c0 35.396543 28.897178 64.293721 64.393712 64.293721zM75.092667 447.556293H64.393712C28.897178 447.556293 0 476.453471 0 511.950005c0 35.496534 28.897178 64.393712 64.393712 64.393711h10.698955c35.496534 0 64.393712-28.897178 64.393711-64.393711-0.09999-35.496534-28.997168-64.393712-64.393711-64.393712zM820.919832 267.373889c16.498389 0 32.896787-6.299385 45.495557-18.798164l7.599258-7.599258c25.097549-25.097549 25.097549-65.893565 0-90.991114s-65.893565-25.097549-90.991114 0l-7.599258 7.599258c-25.097549 25.097549-25.097549 65.893565 0 90.991114 12.498779 12.498779 28.997168 18.798164 45.495557 18.798164z m138.586466 180.182404h-10.698955c-35.496534 0-64.393712 28.897178-64.393712 64.393712 0 35.496534 28.897178 64.393712 64.393712 64.393711h10.698955c35.496534 0 64.393712-28.897178 64.393712-64.393711 0-35.496534-28.897178-64.393712-64.393712-64.393712z m-93.090909 327.867982c-25.097549-25.097549-65.893565-25.097549-90.991114 0-25.097549 25.097549-25.097549 65.893565 0 90.991114l7.599258 7.599258c12.498779 12.498779 28.997168 18.798164 45.495557 18.798164s32.896787-6.299385 45.495557-18.798164c25.097549-25.097549 25.097549-65.893565 0-90.991114l-7.599258-7.599258zM511.950005 187.981642c-178.58256 0-323.968362 145.285812-323.968363 323.968363 0 178.58256 145.285812 323.968362 323.968363 323.968362s323.968362-145.385802 323.968362-323.968362-145.385802-323.968362-323.968362-323.968363z m0 528.048433c-112.589005 0-204.08007-91.591056-204.08007-204.08007S399.46099 307.869935 511.950005 307.869935 716.030075 399.361 716.030075 511.950005 624.53901 716.030075 511.950005 716.030075z m-354.465384 59.3942l-7.599258 7.599258c-25.097549 25.097549-25.097549 65.893565 0 90.991114 12.498779 12.498779 28.997168 18.798164 45.495557 18.798164s32.996778-6.299385 45.495557-18.798164l7.599258-7.599258c25.097549-25.097549 25.097549-65.893565 0-90.991114-25.097549-25.097549-65.893565-25.097549-90.991114 0zM511.950005 884.513622c-35.496534 0-64.393712 28.897178-64.393712 64.393711v10.698955c0 35.496534 28.897178 64.393712 64.393712 64.393712 35.496534 0 64.393712-28.897178 64.393711-64.393712V948.907333c-0.09999-35.496534-28.897178-64.393712-64.393711-64.393711z" p-id="3586" fill="currentColor"></path></svg>