<?xml version="1.0" standalone="no"?><!DOCTYPE svg PUBLIC "-//W3C//DTD SVG 1.1//EN" "http://www.w3.org/Graphics/SVG/1.1/DTD/svg11.dtd"><svg t="1611664911731" class="icon" viewBox="0 0 1024 1024" version="1.1" xmlns="http://www.w3.org/2000/svg" p-id="23530" xmlns:xlink="http://www.w3.org/1999/xlink" width="32" height="32"><defs><style type="text/css"></style></defs><path d="M1024.002509 638.976c0 141.312-114.688 256-256 256H220.162509c-120.832 0.512-219.648-97.28-220.16-218.624-0.512-107.52 77.312-199.68 183.808-217.088v-3.072c1.024-181.76 148.48-328.192 330.24-327.168 155.648 0.512 289.792 110.592 321.024 263.68 111.104 29.696 188.928 131.072 188.928 246.272zM73.730509 675.84c0 80.896 65.536 145.92 145.92 145.92H768.002509c100.864-1.024 181.76-83.456 181.248-184.32-0.512-88.576-65.024-163.84-152.064-178.688-16.384-2.56-28.672-15.872-30.72-32.256-16.896-140.288-144.384-240.128-284.672-223.232-128 15.36-224.768 123.904-225.28 252.928 0 10.752 1.024 21.504 2.048 32.256 2.56 19.968-11.264 38.4-31.232 40.96-1.536 0-3.584 0.512-5.12 0.512H220.162509c-80.384 0-145.92 65.024-146.432 145.92z" p-id="23531"></path></svg>