<?xml version="1.0" standalone="no"?><!DOCTYPE svg PUBLIC "-//W3C//DTD SVG 1.1//EN" "http://www.w3.org/Graphics/SVG/1.1/DTD/svg11.dtd"><svg t="1612849174621" class="icon" viewBox="0 0 1024 1024" version="1.1" xmlns="http://www.w3.org/2000/svg" p-id="2134" xmlns:xlink="http://www.w3.org/1999/xlink" width="32" height="32"><defs><style type="text/css"></style></defs><path d="M1024 950.857143a73.142857 73.142857 0 0 1-73.142857 73.142857H73.142857a73.142857 73.142857 0 0 1-73.142857-73.142857V73.142857a73.142857 73.142857 0 0 1 73.142857-73.142857h633.904762v2.438095a33.962667 33.962667 0 0 1 12.190476-2.438095 36.571429 36.571429 0 0 1 0 73.142857 33.962667 33.962667 0 0 1-12.190476-2.438095V73.142857H121.904762a48.90819 48.90819 0 0 0-48.761905 48.761905v780.190476a48.90819 48.90819 0 0 0 48.761905 48.761905h780.190476a48.90819 48.90819 0 0 0 48.761905-48.761905V316.952381h2.438095a33.962667 33.962667 0 0 1-2.438095-12.190476 36.571429 36.571429 0 0 1 73.142857 0 33.962667 33.962667 0 0 1-2.438095 12.190476h2.438095v633.904762zM537.84381 440.56381L934.278095 44.129524a36.644571 36.644571 0 0 1 51.931429 51.687619L589.531429 492.495238a36.644571 36.644571 0 1 1-51.687619-51.931428z" p-id="2135" fill="currentColor"></path></svg>