<?xml version="1.0" standalone="no"?><!DOCTYPE svg PUBLIC "-//W3C//DTD SVG 1.1//EN" "http://www.w3.org/Graphics/SVG/1.1/DTD/svg11.dtd"><svg t="1611664626163" class="icon" viewBox="0 0 1025 1024" version="1.1" xmlns="http://www.w3.org/2000/svg" p-id="20704" xmlns:xlink="http://www.w3.org/1999/xlink" width="32.03125" height="32"><defs><style type="text/css"></style></defs><path d="M1.6 524.8C0 542.4 12.8 558.4 30.4 560H32c16 0 30.4-12.8 32-28.8 6.4-75.2 68.8-131.2 144-131.2 14.4 0 28.8 1.6 41.6 6.4l35.2 11.2 4.8-36.8C308.8 264 409.6 176 528 176c94.4 0 180.8 56 219.2 142.4l9.6 19.2 25.6-1.6h3.2c97.6 0 176 78.4 176 176 0 17.6 14.4 32 32 32s32-14.4 32-32c0-128-100.8-233.6-228.8-240C744 174.4 640 112 528 112c-137.6 0-259.2 94.4-292.8 225.6-9.6-1.6-17.6-1.6-27.2-1.6C99.2 336 11.2 417.6 1.6 524.8zM32 656h960c17.6 0 32-14.4 32-32s-14.4-32-32-32H32c-17.6 0-32 14.4-32 32s14.4 32 32 32zM960 752c0-17.6-14.4-32-32-32H128c-17.6 0-32 14.4-32 32s14.4 32 32 32h800c17.6 0 32-14.4 32-32zM192 848c-17.6 0-32 14.4-32 32s14.4 32 32 32h256c17.6 0 32-14.4 32-32s-14.4-32-32-32H192zM576 848c-17.6 0-32 14.4-32 32s14.4 32 32 32h320c17.6 0 32-14.4 32-32s-14.4-32-32-32H576z" p-id="20705"></path></svg>