<?xml version="1.0" standalone="no"?><!DOCTYPE svg PUBLIC "-//W3C//DTD SVG 1.1//EN" "http://www.w3.org/Graphics/SVG/1.1/DTD/svg11.dtd"><svg t="1611218653590" class="icon" viewBox="0 0 1024 1024" version="1.1" xmlns="http://www.w3.org/2000/svg" p-id="4371" xmlns:xlink="http://www.w3.org/1999/xlink" width="32" height="32"><defs><style type="text/css"></style></defs><path d="M142.4 333.248l352 196.928c10.944 6.08 24.256 6.08 35.2 0l352-196.928a36.032 36.032 0 0 0-0.128-62.848l-352-195.84a36.032 36.032 0 0 0-34.944 0l-352 195.84a36.032 36.032 0 0 0-0.128 62.848zM512 147.2l278.08 154.752L512 457.472l-278.08-155.52L512 147.2z m334.72 342.208L512 672.064 181.44 491.712a36.032 36.032 0 0 0-34.88 62.976l0.384 0.192 347.84 189.76c10.752 5.888 23.68 5.888 34.432 0l352-192a36.032 36.032 0 0 0-34.432-63.232z m0 211.584L512 883.648l-330.56-180.416a36.032 36.032 0 0 0-34.56 63.232l347.904 189.76c10.752 5.888 23.68 5.888 34.432 0l352-192a35.968 35.968 0 0 0-34.432-63.232z" p-id="4372" fill="currentColor"></path></svg>