<?xml version="1.0" standalone="no"?><!DOCTYPE svg PUBLIC "-//W3C//DTD SVG 1.1//EN" "http://www.w3.org/Graphics/SVG/1.1/DTD/svg11.dtd"><svg t="1611665264354" class="icon" viewBox="0 0 1024 1024" version="1.1" xmlns="http://www.w3.org/2000/svg" p-id="6264" xmlns:xlink="http://www.w3.org/1999/xlink" width="32" height="32"><defs><style type="text/css"></style></defs><path d="M512 74.666667c241.536 0 437.333333 195.797333 437.333333 437.333333S753.536 949.333333 512 949.333333 74.666667 753.536 74.666667 512 270.464 74.666667 512 74.666667z m0 64C305.813333 138.666667 138.666667 305.813333 138.666667 512S305.813333 885.333333 512 885.333333 885.333333 718.186667 885.333333 512 718.186667 138.666667 512 138.666667z" fill="currentColor" p-id="6265"></path><path d="M512 512m-106.666667 0a106.666667 106.666667 0 1 0 213.333334 0 106.666667 106.666667 0 1 0-213.333334 0Z" fill="currentColor" p-id="6266"></path><path d="M682.666667 320m-64 0a64 64 0 1 0 128 0 64 64 0 1 0-128 0Z" fill="currentColor" p-id="6267"></path></svg>