<?xml version="1.0" standalone="no"?><!DOCTYPE svg PUBLIC "-//W3C//DTD SVG 1.1//EN" "http://www.w3.org/Graphics/SVG/1.1/DTD/svg11.dtd"><svg t="1611462312890" class="icon" viewBox="0 0 1024 1024" version="1.1" xmlns="http://www.w3.org/2000/svg" p-id="6472" xmlns:xlink="http://www.w3.org/1999/xlink" width="16" height="16"><defs><style type="text/css"></style></defs><path d="M960 0a64 64 0 0 1 64 64v704a64 64 0 0 1-64 64H535.968v144H736V1024H288v-48h199.968V832H64a64 64 0 0 1-64-64V64a64 64 0 0 1 64-64h896z m15.968 688h-928l0.032 64a32 32 0 0 0 28.256 31.776l3.744 0.224h864a32 32 0 0 0 31.776-28.256l0.224-3.744-0.032-64z m-31.968-640h-864a32 32 0 0 0-31.776 28.256L48 80 47.968 640h928L976 80a32 32 0 0 0-32-32z" p-id="6473" fill="currentColor"></path></svg>