<?xml version="1.0" standalone="no"?><!DOCTYPE svg PUBLIC "-//W3C//DTD SVG 1.1//EN" "http://www.w3.org/Graphics/SVG/1.1/DTD/svg11.dtd"><svg t="1611540575825" class="icon" viewBox="0 0 1024 1024" version="1.1" xmlns="http://www.w3.org/2000/svg" p-id="2411" width="32" height="32" xmlns:xlink="http://www.w3.org/1999/xlink"><defs><style type="text/css"></style></defs><path d="M506.84131 829.259446C229.561713 829.259446 10.31738 575.193955 1.289673 564.876574c-7.738035-9.027708-7.738035-23.214106 0-33.531486 9.027708-10.31738 228.27204-264.382872 505.551637-264.382871 277.279597 0 496.523929 254.065491 505.551637 264.382871 7.738035 9.027708 7.738035 23.214106 0 33.531486-10.31738 10.31738-228.27204 264.382872-505.551637 264.382872z m-451.385391-281.148615c52.876574 55.455919 237.299748 229.561713 451.385391 229.561713s397.219144-174.105793 451.38539-229.561713c-52.876574-55.455919-237.299748-229.561713-451.38539-229.561713S108.332494 492.654912 55.455919 548.110831z" fill="#ffffff" p-id="2412"></path><path d="M497.813602 713.188917c-90.277078 0-163.788413-73.511335-163.788413-163.788413S407.536524 386.901763 497.813602 386.901763c90.277078 0 163.788413 73.511335 163.788413 163.788413s-73.511335 162.498741-163.788413 162.498741z m0-274.700252c-61.904282 0-112.201511 50.297229-112.201511 112.201511 0 61.904282 50.297229 112.201511 112.201511 112.201512s112.201511-50.297229 112.201511-112.201512c0-61.904282-50.297229-112.201511-112.201511-112.201511z" fill="currentColor" p-id="2413"></path></svg>