<?xml version="1.0" standalone="no"?><!DOCTYPE svg PUBLIC "-//W3C//DTD SVG 1.1//EN" "http://www.w3.org/Graphics/SVG/1.1/DTD/svg11.dtd"><svg t="1612849201023" class="icon" viewBox="0 0 1028 1024" version="1.1" xmlns="http://www.w3.org/2000/svg" p-id="2800" xmlns:xlink="http://www.w3.org/1999/xlink" width="32.125" height="32"><defs><style type="text/css"></style></defs><path d="M989.143969 0H34.871595C15.646693 0 0.007782 15.638911 0.007782 34.863813v954.272374c0 19.224903 15.638911 34.863813 34.863813 34.863813h631.533074c19.224903 0 34.863813-15.638911 34.863813-34.863813s-15.638911-34.863813-34.863813-34.863813H69.735409V69.727626h884.544747v596.669261c0 19.224903 15.638911 34.863813 34.863813 34.863813s34.863813-15.638911 34.863813-34.863813V34.863813c0-19.224903-15.638911-34.863813-34.863813-34.863813z" p-id="2801" fill="currentColor"></path><path d="M495.771206 398.642802c6.175875-6.175875 12.650584-11.953307 19.324514-17.232685-26.197665 9.562646-50.701946 24.803113-71.719845 45.821011-76.999222 76.999222-76.999222 202.010895 0 279.010117 23.308949 23.308949 51.000778 39.545525 80.286382 48.709728-9.761868-7.072374-19.125292-15.140856-27.891051-23.906615-91.741634-91.841245-91.741634-240.659922 0-332.401556z" p-id="2802" fill="currentColor"></path><path d="M801.775875 737.319844c-6.275486-6.275486-13.248249-11.15642-20.420233-14.642801 31.676265-43.629572 50.403113-97.220233 50.403113-155.293385 0-146.029572-118.337743-264.267704-264.267704-264.267705S303.123735 421.453696 303.123735 567.383658 421.461479 831.750973 567.39144 831.750973c58.073152 0 111.663813-18.726848 155.293385-50.403113 3.486381 7.171984 8.367315 14.144747 14.642801 20.420233l198.823347 198.922958c23.308949 23.308949 56.877821 27.891051 74.60856 10.160311 17.83035-17.730739 13.248249-51.299611-10.0607-74.60856L801.775875 737.319844z m-234.384435 45.223347c-29.086381 0-57.176654-5.677821-83.772763-16.933852-25.6-10.857588-48.610117-26.297276-68.333074-46.119845-19.722957-19.822568-35.262257-42.832685-46.119844-68.333074-11.256031-26.496498-16.933852-54.686381-16.933852-83.772762s5.677821-57.176654 16.933852-83.772763c10.857588-25.6 26.297276-48.610117 46.119844-68.333074 19.822568-19.822568 42.832685-35.262257 68.333074-46.119844 26.596109-11.256031 54.686381-16.933852 83.772763-16.933852s57.176654 5.677821 83.772762 16.933852c25.6 10.857588 48.610117 26.297276 68.333074 46.119844 19.822568 19.822568 35.262257 42.832685 46.119845 68.333074 11.256031 26.496498 16.933852 54.686381 16.933852 83.772763s-5.677821 57.176654-16.933852 83.772762c-10.857588 25.6-26.297276 48.610117-46.119845 68.333074-19.822568 19.822568-42.832685 35.262257-68.333074 46.119845-26.496498 11.256031-54.686381 16.933852-83.772762 16.933852z" p-id="2803" fill="currentColor"></path></svg>