<?xml version="1.0" standalone="no"?><!DOCTYPE svg PUBLIC "-//W3C//DTD SVG 1.1//EN" "http://www.w3.org/Graphics/SVG/1.1/DTD/svg11.dtd"><svg t="1611665154559" class="icon" viewBox="0 0 1024 1024" version="1.1" xmlns="http://www.w3.org/2000/svg" p-id="4053" xmlns:xlink="http://www.w3.org/1999/xlink" width="32" height="32"><defs><style type="text/css"></style></defs><path d="M939.2 276.8c-44.8-49.6-107.2-84.8-174.4-92.8C729.6 124.8 672 80 609.6 57.6c-30.4-12.8-62.4-17.6-97.6-17.6-160 0-294.4 124.8-302.4 280C89.6 337.6 0 440 0 561.6c0 137.6 107.2 244.8 244.8 244.8 27.2 0 44.8-17.6 44.8-44.8 0-27.2-17.6-44.8-44.8-44.8-89.6 0-155.2-67.2-155.2-155.2s67.2-155.2 155.2-155.2h49.6v-62.4C294.4 224 392 126.4 512 126.4c27.2 0 49.6 4.8 67.2 12.8 48 16 92.8 52.8 120 100.8l12.8 22.4 22.4 4.8c52.8 4.8 102.4 30.4 142.4 72 40 44.8 62.4 97.6 62.4 155.2 0 102.4-67.2 192-164.8 217.6-22.4 9.6-35.2 30.4-30.4 52.8 4.8 22.4 30.4 35.2 52.8 30.4 132.8-40 227.2-160 227.2-302.4 0-83.2-30.4-158.4-84.8-216z" p-id="4054"></path><path d="M382.4 627.2c-27.2 0-44.8 17.6-44.8 44.8v267.2c0 27.2 17.6 44.8 44.8 44.8 27.2 0 44.8-17.6 44.8-44.8V672c0-27.2-17.6-44.8-44.8-44.8zM516.8 627.2c-27.2 0-44.8 17.6-44.8 44.8v267.2c0 27.2 17.6 44.8 44.8 44.8 27.2 0 44.8-17.6 44.8-44.8V672c0-27.2-19.2-44.8-44.8-44.8zM649.6 627.2c-27.2 0-44.8 17.6-44.8 44.8v267.2c0 27.2 17.6 44.8 44.8 44.8s44.8-17.6 44.8-44.8V672c0-27.2-17.6-44.8-44.8-44.8z" p-id="4055"></path></svg>