<?xml version="1.0" standalone="no"?><!DOCTYPE svg PUBLIC "-//W3C//DTD SVG 1.1//EN" "http://www.w3.org/Graphics/SVG/1.1/DTD/svg11.dtd"><svg t="1611652270224" class="icon" viewBox="0 0 1024 1024" version="1.1" xmlns="http://www.w3.org/2000/svg" p-id="24184" xmlns:xlink="http://www.w3.org/1999/xlink" width="32" height="32"><defs><style type="text/css"></style></defs><path d="M955.1 101.2c-0.4-0.9-0.8-1.8-1.2-2.8-7.1-15-25.1-32.9-70.4-32.9H274.9c-10.8 0-65.8 1.5-90.2 31.2L77.3 227.9c-5.4 6.6-8.9 14.2-10.4 22-3.4 6-5.3 12.9-5.3 20.2v625.6c0 8 2.3 15.4 6.3 21.8 0.7 2.4 1.6 4.9 2.7 7.2 7.1 15 25.1 32.9 70.4 32.9h608.6c10.8 0 65.8-1.5 90.2-31.2l107.4-131.1c1.1-1.3 2-2.6 3-4 6.1-7.2 9.8-16.4 9.8-26.5V120.4c-0.1-7-1.9-13.5-4.9-19.2z m-709.9 51.2c5.1-2 16.7-4.8 29.7-4.8h567.2l-62.8 76.7c-5.1 2-16.7 4.8-29.7 4.8H182.4l62.8-76.7zM143.6 875.5V311.1h600.5v564.4H143.6z m682.6-62V292c5.1-3.4 9.8-7.4 13.6-12.1l38.1-46.5v517l-51.7 63.1z" p-id="24185" fill="currentColor"></path></svg>