<?xml version="1.0" standalone="no"?><!DOCTYPE svg PUBLIC "-//W3C//DTD SVG 1.1//EN" "http://www.w3.org/Graphics/SVG/1.1/DTD/svg11.dtd"><svg t="1611664665915" class="icon" viewBox="0 0 1024 1024" version="1.1" xmlns="http://www.w3.org/2000/svg" p-id="22506" xmlns:xlink="http://www.w3.org/1999/xlink" width="32" height="32"><defs><style type="text/css"></style></defs><path d="M949.077 578.606l-73.491-71.528 71.527-73.491c12.326-12.665 12.052-32.924-0.612-45.25-12.666-12.327-32.925-12.052-45.251 0.613l-88.259 90.681a32.186 32.186 0 0 0-1.32-0.017l-224.093 3.033 125.867-134.584a32.196 32.196 0 0 0 3.215-4.052l98.212-3.287c17.663-0.591 31.503-15.389 30.912-33.052-0.591-17.664-15.388-31.491-33.053-30.912l-83.338 2.789-2.789-83.338c-0.592-17.664-15.396-31.505-33.053-30.912-17.663 0.591-31.503 15.389-30.912 33.052l3.565 106.525-118.531 126.743v-219.7c0-2.674-0.333-5.269-0.951-7.751l83.048-83.048c12.497-12.497 12.497-32.758 0.001-45.255-12.499-12.497-32.76-12.497-45.255 0L512 148.38l-72.516-72.516c-12.497-12.497-32.758-12.497-45.255 0s-12.497 32.758 0 45.255l89.477 89.477c-0.018 0.439-0.033 0.879-0.033 1.323v224.112L350.805 308.355a32.247 32.247 0 0 0-4.008-3.27l-1.958-98.248c-0.352-17.669-14.968-31.72-32.631-31.356-17.669 0.352-31.708 14.961-31.356 32.631l1.661 83.368-83.368 1.661c-17.669 0.352-31.708 14.961-31.356 32.631 0.348 17.453 14.604 31.362 31.981 31.362 0.216 0 0.434-0.002 0.65-0.006l106.563-2.123 134.885 129.614-231.66 3.136-90.646-88.225c-12.666-12.327-32.924-12.052-45.251 0.613s-12.052 32.924 0.613 45.25l73.491 71.527-71.528 73.491c-12.327 12.665-12.052 32.925 0.613 45.251 6.22 6.054 14.271 9.068 22.316 9.068 8.335 0 16.662-3.236 22.935-9.681l80.979-83.202 234.47-3.174L315.653 679.71l-106.525 3.565c-17.663 0.592-31.503 15.39-30.912 33.053 0.591 17.663 15.394 31.488 33.052 30.912l83.338-2.789 2.79 83.338c0.579 17.299 14.784 30.931 31.962 30.93 0.362 0 0.726-0.006 1.09-0.018 17.663-0.592 31.502-15.39 30.911-33.053l-3.268-97.622 125.58-134.278v219.688l-89.443 89.444c-12.497 12.496-12.497 32.758 0 45.255 6.249 6.248 14.438 9.372 22.627 9.372s16.379-3.124 22.627-9.373L512 875.619l72.516 72.516c12.498 12.498 32.758 12.498 45.256 0 12.496-12.496 12.496-32.758 0-45.254l-82.099-82.099V586.29L677.038 710.6l2.124 106.563c0.348 17.453 14.604 31.362 31.98 31.362 0.216 0 0.434-0.002 0.65-0.007 17.67-0.352 31.708-14.961 31.356-32.631l-1.662-83.368 83.368-1.661c17.67-0.353 31.708-14.962 31.356-32.632-0.354-17.67-14.956-31.746-32.632-31.355l-97.655 1.946-127.286-122.314 213.9-2.895a32.045 32.045 0 0 0 7.736-1.055l84.165 81.917c6.221 6.054 14.271 9.068 22.316 9.068 8.335 0 16.662-3.236 22.935-9.681 12.327-12.665 12.052-32.925-0.612-45.251z" p-id="22507"></path></svg>