<?xml version="1.0" standalone="no"?><!DOCTYPE svg PUBLIC "-//W3C//DTD SVG 1.1//EN" "http://www.w3.org/Graphics/SVG/1.1/DTD/svg11.dtd"><svg t="1611731810194" class="icon" viewBox="0 0 1024 1024" version="1.1" xmlns="http://www.w3.org/2000/svg" p-id="7155" xmlns:xlink="http://www.w3.org/1999/xlink" width="32" height="32"><defs><style type="text/css"></style></defs><path d="M693.82 584.58l-16.36 77.39a368.829 368.829 0 0 1 121.09 45.42c20.73 13.44 33.45 27.98 33.45 38.87 0 33.43-112.73 99.91-320 99.91-207.27 0-320-65.76-320-99.91 0-21.8 49.82-62.49 161.09-85.38l-16.36-78.48C193.82 611.83 112 671.06 112 746.26c0 56.32 46.18 103.19 130.91 136.61A764.424 764.424 0 0 0 512 926.83a749.081 749.081 0 0 0 269.09-43.96C865.82 849.81 912 801.12 912 746.26c0-73.03-79.64-132.25-218.18-161.68z" p-id="7156" fill="currentColor"></path><path d="M375.27 532.99h30.18l6.18 233.25c5.21 25.37 28.32 43.04 54.18 41.42h94.54c26.09 1.83 49.53-15.85 54.91-41.42l5.82-232.89h28.73c13.93 0.83 25.94-9.7 26.91-23.62 0.17-0.72 0.17-1.46 0-2.18l-8-161.68c-5.56-25.37-29-42.74-54.91-40.69h-204c-25.58-1.87-48.65 15.31-54.18 40.33l-8 160.95a21.426 21.426 0 0 0 6.55 18.53 30.184 30.184 0 0 0 21.09 8zM511.76 299.01c55.69-0.07 100.82-45.2 100.88-100.88C612.71 142.44 567.69 97.2 512 97c-55.98 0-101.37 45.38-101.37 101.37 0.2 55.69 45.44 100.71 101.13 100.64z" p-id="7157" fill="currentColor"></path></svg>